<svg width="226" height="87" viewBox="0 0 226 87" fill="none" xmlns="http://www.w3.org/2000/svg">
<g clip-path="url(#clip0_23_567)">
<path d="M5.4902 62.49L5.3502 76.86C5.4002 78.14 5.5002 79.49 6.0202 80.89C6.2802 81.59 6.6502 82.29 7.1902 82.92C7.7202 83.54 8.4102 84.07 9.1302 84.41C10.6002 85.07 11.9002 85.16 13.0602 85.34C14.2602 85.51 15.4602 85.66 16.6602 85.79C20.2502 86.18 23.9002 86.15 27.6202 86.69C29.4702 86.96 32.9302 86.45 36.2202 86.42C45.1302 86.32 54.0202 86.04 62.9102 85.86C71.5602 85.72 80.1802 85.59 88.8302 85.45C93.1302 85.34 97.4302 85.26 101.84 84.94C104.04 84.77 106.26 84.51 108.45 84.07C109.11 83.87 110.27 83.93 111.28 83.89C112.32 83.87 113.36 83.87 114.38 83.88C121.52 83.94 127.95 83.4 134.79 83.37C142.04 83.34 149.55 83.27 156.65 82.93C161.83 82.68 166.95 82.39 172.09 82.37C175.3 82.36 178.31 82.56 181.82 82.45C185.07 82.35 188.76 82.02 191.6 82.47C191.84 82.51 193.3 82.37 194.03 82.27C197.53 81.81 201.83 81.69 204.78 81.81C207.66 81.92 210.19 81.78 212.87 81.63C214.2 81.56 215.54 81.47 216.9 81.36C217.58 81.3 218.26 81.24 218.98 81.15L219.56 81.07C219.87 81.03 220.19 80.93 220.5 80.86C220.83 80.81 221.08 80.61 221.35 80.45L221.54 80.31L221.59 80.27C221.69 80.39 221.62 80.3 221.64 80.33L221.65 80.31L221.67 80.29L221.75 80.21L222.08 79.88C222.25 79.65 222.4 79.4 222.55 79.16L222.78 78.8L222.92 78.53C223.1 78.19 223.24 77.85 223.37 77.51C223.63 76.82 223.81 76.14 223.95 75.47C224.21 74.13 224.3 72.86 224.35 71.66C224.44 69.33 224.54 67 224.63 64.67C224.83 59.2 224.87 53.77 225.06 48.3C225.26 42.6 225.77 36.54 225.74 31.26C225.69 25.94 225.86 20.88 225.61 15.58C225.52 14.06 225.29 12.4 224.95 10.79C224.62 9.17 224.19 7.67 223.83 6.29C223.78 6.03 223.11 4.84 222.61 4.36C222.14 3.86 221.55 3.38 220.93 3.02C220.31 2.66 219.68 2.42 219.07 2.25C217.83 1.91 216.8 1.74001 215.63 1.7C214.45 1.61001 213.44 1.59 212.38 1.54L209.23 1.38C205.05 1.17001 200.85 0.93 196.6 0.959999C187.83 1.05 178.83 0.849998 169.93 0.779999C167.56 0.760002 165.02 0.910004 162.84 0.5C162.07 0.360001 159.58 0.330009 158.37 0.420006C151.8 0.930008 144.87 0.580002 138.14 0.650002C130.46 0.730003 122.75 0.459999 115 0.860001C111.72 1.03 107.25 1.12 103.31 0.610001C101.5 0.379997 97.7502 0.600006 94.9202 0.550003C92.5902 0.510002 90.3502 0.290009 88.0502 0.310005C86.1002 0.320007 84.1402 0.559998 82.1602 0.68C81.5702 0.720001 80.8502 0.729996 80.2702 0.709999C69.0102 0.330002 57.8802 1.40001 46.6102 1.17001C40.9502 1.05 35.2702 0.900002 29.5802 0.610001C26.7202 0.489998 23.9402 0.270004 21.0302 0.090004C18.1102 -0.0599976 14.7402 -0.109993 11.6002 1.67001C9.9502 2.63 8.5002 4.07 7.6802 5.96C7.2802 6.9 7.0702 7.96001 7.1302 8.99001C7.1302 9.25001 7.1702 9.46 7.1902 9.65V9.78L7.2102 9.81001V9.88C7.2402 9.97 7.2502 10.08 7.2102 10.18C7.1802 10.28 7.1002 10.35 7.0102 10.42L6.9402 10.47L6.9002 10.49L6.7802 10.55L6.3002 10.78C5.6702 11.09 5.0602 11.39 4.4802 11.7C3.3102 12.31 2.2602 12.93 1.3502 13.54C-0.289802 14.64 -0.129802 15.09 2.4702 14.39C3.4202 14.13 4.4402 13.85 5.4902 13.53C6.0102 13.37 6.5402 13.2 7.0702 13.03L7.9002 12.75C8.2702 12.62 8.6302 12.46 8.9402 12.23C9.4402 11.87 9.7702 11.29 9.8602 10.67C9.9102 10.36 9.9202 10.04 9.9102 9.73L9.8802 9.04C9.8802 8.31 10.0702 7.61 10.4102 6.96C11.1202 5.66 12.3902 4.63 13.7802 4.05C15.2202 3.45 16.9202 3.29 18.6202 3.35C20.3302 3.4 22.1202 3.66 23.9602 3.82C27.6202 4.19 31.3302 4.43 35.1202 4.43C37.4802 4.44 40.2302 4.76 42.1802 4.35C42.4502 4.29 43.4202 4.27 43.8802 4.31001C53.9302 5.12 64.4002 4.45 74.6102 4.31001C83.3202 4.17001 91.6902 4.6 100.47 4.4C105.29 4.95 110.96 4.86 115.84 4.71C133.04 4.17 150.3 4.61 167.51 4.62C176.24 4.63 184.97 4.68 193.71 4.78L206.8 4.97C208.98 5 211.15 5.06001 213.32 5.13C214.46 5.16 215.32 5.22001 216.34 5.31001C217.35 5.48 218.22 5.71001 218.83 6.06001C219.61 6.49001 220.1 7.37 220.55 8.55C220.99 9.74001 221.35 11.03 221.72 12.6C222.43 15.55 222.24 19.81 222.2 23.57C222.15 27.03 221.88 30.67 221.87 33.96C221.85 40.79 221.6 47.65 221.29 54.52L220.8 64.82L220.56 69.97C220.48 71.7 220.44 73.36 220.14 74.84C220.04 75.32 219.92 75.78 219.75 76.21C219.67 76.42 219.58 76.63 219.48 76.83C219.42 76.95 219.41 76.98 219.38 77.01L219.31 77.12C219.26 77.25 219.12 77.27 219 77.3L218.66 77.36L218.11 77.43C217.37 77.52 216.6 77.59 215.83 77.66C214.29 77.79 212.73 77.89 211.18 77.98C208.06 78.16 204.93 78.29 201.8 78.41C195.54 78.64 189.28 78.79 183.04 78.89C174.74 79.02 166.47 78.89 158.1 79.18C154.53 79.3 150.77 79.08 147.25 79.65C146.25 79.81 142.91 79.49 140.61 79.51C134.9 79.57 129.18 79.71 123.46 79.82C119.49 79.9 115.52 79.99 111.52 80.12L110.01 80.18L109.24 80.22L108.83 80.25L108.61 80.27L108.21 80.33C107.27 80.54 106.36 80.7 105.41 80.84C103.53 81.11 101.61 81.25 99.6602 81.34C94.8802 81.53 90.0502 81.38 85.2302 81.48C80.1702 81.56 75.0602 81.7 70.0102 81.89C63.6002 82.13 57.2202 82.49 50.8002 82.67C44.1402 82.85 37.2002 82.85 30.9002 83.04C25.0202 83.23 19.1602 83.01 13.4002 82.21C11.9202 82.02 10.6202 81.82 9.9702 81.25C9.2502 80.72 8.8302 79.66 8.6602 78.39C8.4802 77.12 8.5502 75.72 8.5602 74.22L8.6002 69.79C8.6902 58.04 8.7902 46.26 9.0302 34.54C9.1002 31.21 9.0402 28.03 8.9802 24.86C8.9502 23.28 8.9202 21.7 8.9002 20.11C8.9002 19.23 8.8902 18.35 8.8802 17.46C8.8802 16.85 8.7602 16.25 8.3502 15.8C7.9602 15.35 7.3902 15.11 6.8002 14.89C6.4902 14.78 6.3002 14.72 6.1102 14.67C5.9102 14.61 5.7102 14.57 5.5102 14.52C5.1102 14.43 4.6902 14.36 4.2802 14.32C3.4602 14.22 2.6602 14.21 1.9902 14.27C1.3202 14.33 0.770198 14.49 0.530198 14.7C0.310198 14.93 0.460198 15.06 0.610198 15.14C0.780198 15.2 1.2202 15.32 1.6802 15.44C2.4202 15.62 3.1602 15.86 3.8802 16.12L4.9602 16.53L5.4902 16.74L5.7502 16.85L5.9002 16.92C6.0902 17.02 6.2902 17.11 6.4202 17.28C6.5502 17.46 6.5002 17.7 6.4702 17.89L6.4502 18.03C6.4502 18.03 6.4402 18.12 6.4302 18.23L6.3802 18.82L6.2902 20C6.0502 23.17 5.8702 26.46 5.8502 30.12C5.7902 40.91 5.6102 51.72 5.4902 62.52V62.49Z" fill="#8226BF"/>
</g>
<defs>
<clipPath id="clip0_23_567">
<rect width="225.77" height="86.76" fill="white" transform="matrix(1 0 0 -1 0 86.76)"/>
</clipPath>
</defs>
</svg>
