<svg width="15" height="16" viewBox="0 0 15 16" fill="none" xmlns="http://www.w3.org/2000/svg">
<path d="M12.5019 3.9409C12.3728 3.93207 12.2402 3.91596 12.1134 3.91554C12.0666 3.91561 12.0014 3.8591 11.98 3.96116C11.9694 4.01378 11.8886 3.88142 11.8449 3.8824C11.7277 3.88791 11.5996 3.85457 11.4818 3.85372C11.3654 3.85174 11.2583 3.88656 11.1416 3.8814C11.0253 3.87942 10.8891 3.80498 10.7892 3.85434C10.7023 3.89672 10.5899 3.78286 10.5003 3.79346C10.4061 3.80426 10.3036 3.80482 10.1941 3.74295C10.1148 3.69775 10.0347 3.64301 9.96759 3.65254C9.92587 3.65875 9.89752 3.7154 9.84656 3.70184C9.80038 3.69124 9.73773 3.6293 9.72357 3.74591C9.72297 3.75657 9.69798 3.72903 9.68282 3.71059C9.61772 3.62004 9.55856 3.61644 9.52939 3.66355C9.50022 3.71066 9.46279 3.69646 9.42617 3.6918C9.32561 3.68057 9.22337 3.66729 9.11781 3.63289C9.0387 3.60788 8.95351 3.547 8.87413 3.51882C8.79166 3.48972 8.71518 3.53054 8.63172 3.45468C8.54826 3.37882 8.47785 3.36724 8.40408 3.35156C8.36268 3.34393 8.30541 3.27429 8.28983 3.39203C8.28924 3.40269 8.27375 3.3981 8.26365 3.38581C8.1208 3.19786 8.0371 3.38369 7.91051 3.31517C7.77914 3.2437 7.65712 3.24624 7.53238 3.21699C7.49859 3.21007 7.45844 3.16409 7.43987 3.24687C7.4333 3.27589 7.39809 3.2701 7.37761 3.24235C7.26845 3.09536 7.17925 3.14636 7.08189 3.102C6.97019 3.04874 6.86697 3.07699 6.74618 2.9529C6.69647 2.90098 6.6298 2.86263 6.58527 2.95939C6.56485 3.0029 6.50644 2.93756 6.46558 2.93629C6.43402 2.93777 6.4074 2.97944 6.37361 2.97252C6.34601 2.96744 6.31406 2.9115 6.28287 2.88212C6.27445 2.87187 6.26375 2.87025 6.255 2.87385C6.10513 2.95641 5.93082 2.73591 5.77419 2.72199C5.61447 2.70715 5.44898 2.6426 5.28436 2.57055C5.19346 2.53121 5.09898 2.46757 5.02729 2.22948C4.9955 2.12248 4.98962 2.01851 5.02443 1.96688C5.04991 1.92952 5.07875 1.89625 5.11059 1.89795C5.1585 1.89357 5.20783 1.88806 5.25575 1.88369C5.35495 1.87903 5.44871 1.8108 5.55721 1.89718C5.59122 1.9243 5.6249 1.87698 5.6581 1.98286C5.66229 1.99649 5.6769 2.00857 5.68255 2.00405C5.81053 1.89486 5.96337 2.04085 6.10305 2.06833C6.22301 2.0946 6.32698 2.00462 6.4552 2.09221C6.5099 1.99071 6.59036 2.03161 6.66148 2.08677C6.91364 2.28235 7.14224 2.25566 7.38124 2.33272C7.62333 2.4107 7.86188 2.44736 8.10261 2.50944C8.14428 2.52025 8.16758 2.45746 8.22431 2.52075C8.27625 2.58107 8.32818 2.5531 8.38056 2.56553C8.42815 2.575 8.47525 2.56108 8.52388 2.60028C8.73273 2.76598 8.90896 2.72686 9.09873 2.77538C9.28682 2.82186 9.47827 2.87243 9.6575 2.86827C9.76599 2.86637 9.86589 2.817 9.98438 2.86143C10.0359 2.88135 10.0713 2.81905 10.1439 2.94435C10.1649 2.97846 10.1911 2.89639 10.2198 2.89717C10.2954 2.89788 10.3739 2.91653 10.4502 2.92677C10.5573 2.94302 10.6677 2.96336 10.7705 2.96597C10.8339 2.96619 10.8878 2.92642 10.9479 2.92254C11.0124 2.91845 11.0809 2.9248 11.1521 2.94592C11.2416 2.96937 11.3381 3.02122 11.4274 3.04149C11.5214 3.06473 11.5988 3.01642 11.6978 3.07985C11.8842 3.19554 12.0275 3.15903 12.1878 3.18022C12.3466 3.20254 12.5069 3.22373 12.6532 3.20516C12.7369 3.19591 12.8484 3.30023 12.9332 3.30369C12.9727 3.3061 13.1189 3.60345 13.1335 3.70381C13.1351 3.72288 13.1353 3.74308 13.1314 3.74965C13.0742 3.83956 13.0394 3.97947 12.9371 3.96619C12.7876 3.94663 12.6427 3.94705 12.4954 3.93588L12.5019 3.9409Z" fill="#8226BF"/>
<path d="M12.1744 10.9272C12.1581 10.8007 12.1483 10.6692 12.124 10.5464C12.1148 10.5012 12.1583 10.4271 12.0527 10.4262C11.9983 10.4262 12.1142 10.3223 12.1047 10.2803C12.0764 10.1679 12.0846 10.0375 12.0626 9.92336C12.0419 9.81038 11.9864 9.71346 11.9688 9.5996C11.9482 9.48663 11.9957 9.34041 11.9272 9.25336C11.8681 9.17751 11.9595 9.04664 11.9315 8.96198C11.9024 8.87299 11.8819 8.77386 11.9221 8.65595C11.9516 8.57041 11.9905 8.48222 11.9679 8.41916C11.9536 8.38 11.8918 8.36359 11.8954 8.31165C11.8969 8.26491 11.9463 8.19224 11.8276 8.20123C11.8169 8.20273 11.8394 8.17319 11.8548 8.15493C11.9322 8.07433 11.9242 8.01639 11.8717 7.99733C11.8192 7.97828 11.826 7.9393 11.8235 7.90297C11.8151 7.80349 11.8084 7.70198 11.8221 7.59315C11.8316 7.51175 11.8755 7.41748 11.8881 7.33519C11.901 7.24974 11.8455 7.18368 11.9047 7.08817C11.9639 6.99266 11.9617 6.92228 11.9629 6.84785C11.9625 6.80631 12.0206 6.73735 11.9005 6.74519C11.8897 6.74669 11.8913 6.73082 11.9015 6.71865C12.0606 6.54386 11.8596 6.49905 11.9031 6.36324C11.9486 6.22222 11.9223 6.10466 11.9271 5.97828C11.9274 5.94424 11.9653 5.89644 11.8794 5.89459C11.8492 5.89388 11.8482 5.85869 11.8718 5.83347C11.9967 5.69925 11.9286 5.62287 11.9538 5.52004C11.985 5.4016 11.9368 5.30723 12.0367 5.16622C12.0787 5.10801 12.1038 5.03605 11.9989 5.01179C11.9517 5.0005 12.0053 4.93128 11.9986 4.8915C11.991 4.86125 11.9444 4.84361 11.9447 4.80957C11.9444 4.78188 11.9938 4.74008 12.0169 4.70418C12.0255 4.69404 12.025 4.68337 12.0197 4.67561C11.9085 4.54667 12.0938 4.33511 12.0772 4.18086C12.0608 4.02344 12.0928 3.85076 12.1324 3.67746C12.1539 3.58186 12.1988 3.47807 12.4216 3.36237C12.5218 3.31078 12.624 3.28486 12.6821 3.30849C12.7243 3.32587 12.763 3.3473 12.7675 3.37843C12.7811 3.42394 12.7962 3.47059 12.8099 3.5161C12.8338 3.61117 12.9199 3.68861 12.8551 3.8104C12.8348 3.84858 12.8884 3.87196 12.7896 3.92469C12.7768 3.93139 12.7677 3.94789 12.7733 3.95247C12.9068 4.05504 12.7913 4.23133 12.7912 4.37182C12.7884 4.493 12.8981 4.57608 12.836 4.71718C12.9475 4.75035 12.9225 4.83616 12.8815 4.9157C12.7361 5.19773 12.8072 5.41372 12.777 5.65995C12.7466 5.90935 12.7566 6.14729 12.7417 6.39229C12.739 6.43471 12.806 6.44503 12.7541 6.51223C12.7043 6.57422 12.7422 6.61903 12.74 6.67212C12.7399 6.72001 12.7629 6.76287 12.7333 6.81755C12.6092 7.05187 12.6824 7.21476 12.6711 7.40781C12.6615 7.59883 12.6485 7.79391 12.6875 7.9665C12.7105 8.0711 12.779 8.15815 12.7579 8.28144C12.7481 8.33514 12.817 8.35728 12.7065 8.45191C12.6767 8.47889 12.7634 8.48825 12.7682 8.5162C12.7822 8.5894 12.7789 8.66904 12.7836 8.74488C12.7883 8.8516 12.7895 8.96236 12.8069 9.06237C12.8191 9.12376 12.8691 9.16821 12.8846 9.22553C12.9013 9.28718 12.9083 9.35464 12.9011 9.42767C12.8952 9.51886 12.8625 9.6223 12.8597 9.71261C12.8549 9.80812 12.918 9.87356 12.8742 9.98169C12.7954 10.1846 12.8596 10.3161 12.8697 10.4753C12.8784 10.6333 12.8885 10.7925 12.9355 10.9305C12.961 11.0096 12.8789 11.1379 12.892 11.2206C12.8973 11.2592 12.6301 11.4585 12.5331 11.4922C12.5144 11.4975 12.4944 11.5016 12.4871 11.4991C12.3866 11.4613 12.2407 11.4548 12.234 11.3533C12.2243 11.2048 12.1957 11.0647 12.1781 10.92L12.1744 10.9272Z" fill="#8226BF"/>
<path d="M1.19336 12.3743C1.381 12.2017 1.57663 12.0349 1.74902 11.8464C1.81503 11.7776 1.95365 11.7832 1.88754 11.5677C1.85229 11.4596 2.08454 11.5744 2.14617 11.5048C2.30393 11.3227 2.50306 11.1876 2.66445 11.0105C2.82071 10.8371 2.93485 10.6209 3.09111 10.4474C3.24662 10.2783 3.49875 10.201 3.58452 9.96672C3.65628 9.76118 3.91303 9.78684 4.02104 9.63185C4.13492 9.46898 4.26556 9.31338 4.46944 9.25457C4.61632 9.21278 4.77845 9.1869 4.85421 9.062C4.90346 8.98592 4.88297 8.84474 4.96059 8.78679C5.03235 8.73674 5.1746 8.74747 5.07423 8.5217C5.06411 8.50222 5.12611 8.50827 5.15961 8.52282C5.33449 8.57905 5.41224 8.49447 5.40775 8.36488C5.39813 8.23887 5.45813 8.20459 5.51163 8.15589C5.65239 8.01977 5.79753 7.8844 5.96441 7.77935C6.09104 7.69859 6.25754 7.67345 6.3878 7.59775C6.52318 7.51847 6.57807 7.33229 6.75907 7.32737C6.9437 7.3275 7.04558 7.23367 7.15034 7.14921C7.21334 7.09768 7.35259 7.12567 7.24785 6.89916C7.23772 6.87968 7.26335 6.86181 7.28523 6.86551C7.65985 6.96441 7.57225 6.5098 7.79813 6.42806C8.03351 6.34348 8.18478 6.14695 8.36941 5.9916C8.41704 5.95079 8.51404 5.96275 8.45355 5.7926C8.43267 5.73132 8.48105 5.68619 8.5328 5.69939C8.82143 5.77486 8.87432 5.54836 9.0462 5.46637C9.23783 5.3744 9.33297 5.16393 9.61385 5.18034C9.72985 5.18663 9.85335 5.14977 9.80049 4.90983C9.77474 4.79885 9.91987 4.81896 9.96687 4.75583C10.0029 4.70417 9.99176 4.58679 10.0394 4.54598C10.0811 4.51306 10.178 4.55165 10.2459 4.54981C10.2634 4.55277 10.2839 4.53847 10.2869 4.5212C10.3755 4.14083 10.8203 4.22494 11.0228 3.99265C11.2261 3.75604 11.4925 3.59675 11.7625 3.44251C11.9125 3.35683 12.0959 3.31232 12.4441 3.5889C12.6026 3.71344 12.7266 3.88101 12.7427 4.02145C12.7561 4.12588 12.7563 4.2281 12.7203 4.27976C12.6688 4.36878 12.6173 4.4578 12.5658 4.54682C12.4548 4.71907 12.4214 4.98885 12.1943 5.02595C12.1249 5.03643 12.133 5.17107 11.9789 5.04727C11.9593 5.03063 11.9264 5.03839 11.9285 5.05208C11.896 5.44639 11.5522 5.45489 11.3492 5.63822C11.1785 5.79148 11.1448 6.11452 10.8957 6.17456C10.9397 6.43966 10.7949 6.49514 10.6511 6.51967C10.1333 6.59646 9.87665 7.01062 9.49888 7.26657C9.11161 7.52536 8.77296 7.84124 8.40457 8.12099C8.34232 8.16822 8.37519 8.31593 8.23956 8.29299C8.10831 8.27079 8.07193 8.40235 7.99355 8.46461C7.92029 8.5233 7.88041 8.62317 7.77528 8.63205C7.33577 8.67321 7.1495 9.01931 6.85586 9.23174C6.56222 9.44417 6.26783 9.66092 6.03444 9.9413C5.89206 10.1127 5.81429 10.3527 5.61091 10.4605C5.52678 10.504 5.53478 10.6653 5.31853 10.5621C5.2559 10.5337 5.30464 10.7197 5.26577 10.762C5.16526 10.8738 5.0415 10.9639 4.92937 11.0649C4.77036 11.2024 4.6041 11.3297 4.46397 11.4882C4.37959 11.5849 4.34458 11.7345 4.2682 11.8371C4.18232 11.9425 4.08556 12.0328 3.96918 12.1064C3.82205 12.2014 3.64592 12.256 3.50316 12.3518C3.35528 12.4512 3.29302 12.6539 3.09726 12.6919C2.7335 12.7636 2.57161 13.0472 2.32985 13.2462C2.08808 13.4452 1.84632 13.6442 1.65906 13.8924C1.54892 14.0337 1.30092 14.0095 1.17629 14.1306C1.11691 14.1872 0.649911 13.8683 0.53754 13.7116C0.515791 13.6813 0.499917 13.643 0.498543 13.625C0.495303 13.3846 0.41794 13.0783 0.573948 12.9581C0.798836 12.7785 0.998349 12.5634 1.20874 12.3636L1.19336 12.3743Z" fill="#8226BF"/>
</svg>
